<?xml version="1.0" standalone="no"?>
<!DOCTYPE svg PUBLIC "-//W3C//DTD SVG 20010904//EN"
 "http://www.w3.org/TR/2001/REC-SVG-20010904/DTD/svg10.dtd">
<svg version="1.0" xmlns="http://www.w3.org/2000/svg"
 width="260.000000pt" height="260.000000pt" viewBox="0 0 260.000000 260.000000"
 preserveAspectRatio="xMidYMid meet">
<metadata>
Created by potrace 1.11, written by Peter Selinger 2001-2013
</metadata>
<g transform="translate(0.000000,260.000000) scale(0.100000,-0.100000)"
fill="#000000" stroke="none">
<path d="M90 1315 l0 -475 125 0 125 0 0 35 0 35 -80 0 -80 0 0 405 0 405 80
0 80 0 0 35 0 35 -125 0 -125 0 0 -475z"/>
<path d="M2260 1755 l0 -35 80 0 80 0 0 -405 0 -405 -80 0 -80 0 0 -35 0 -35
125 0 125 0 0 475 0 475 -125 0 -125 0 0 -35z"/>
<path d="M1165 1775 c-5 -2 -36 -11 -67 -21 l-58 -17 0 -53 0 -52 60 30 c98
49 210 48 255 -2 22 -24 29 -89 13 -120 -17 -32 -92 -70 -140 -70 -37 0 -38
-1 -38 -39 l0 -38 66 -6 c43 -3 76 -12 93 -24 59 -45 66 -164 12 -222 -55 -58
-177 -64 -275 -13 -28 15 -54 28 -58 30 -5 2 -8 -21 -8 -50 0 -52 1 -54 33
-66 17 -6 65 -17 104 -24 196 -33 335 58 340 222 2 94 -40 158 -120 182 -39
12 -40 12 -16 23 74 31 119 95 119 168 0 54 -39 109 -95 137 -39 19 -67 25
-130 26 -44 1 -84 1 -90 -1z"/>
<path d="M610 1591 c-105 -34 -153 -104 -136 -197 13 -67 76 -103 235 -134 70
-15 101 -39 101 -80 0 -87 -168 -105 -297 -33 l-43 24 0 -55 0 -54 53 -18 c34
-12 83 -18 142 -19 78 0 97 4 140 26 66 33 97 85 92 151 -2 26 -12 59 -21 73
-21 31 -82 61 -158 76 -29 6 -64 13 -78 15 -89 18 -105 100 -28 140 43 22 142
13 214 -20 l55 -25 -3 51 c-3 50 -4 51 -43 65 -48 17 -190 26 -225 14z"/>
<path d="M1820 1590 c-70 -19 -135 -77 -166 -148 -26 -58 -28 -191 -4 -255 40
-106 120 -157 255 -164 64 -3 93 1 145 19 l65 23 3 52 3 52 -58 -30 c-127 -65
-270 -42 -319 52 -8 16 -17 47 -20 69 l-6 40 206 0 206 0 0 55 c0 75 -33 157
-77 194 -55 45 -153 62 -233 41z m158 -81 c26 -17 49 -56 57 -101 l7 -38 -162
0 -162 0 7 28 c21 86 92 136 181 128 28 -2 61 -10 72 -17z"/>
</g>
</svg>
